<svg width="96" height="96" viewBox="0 0 96 96" fill="none" xmlns="http://www.w3.org/2000/svg">
<path d="M84 49.5V32C83.9986 30.5971 83.6282 29.2192 82.9262 28.0046C82.2241 26.7901 81.2149 25.7814 80 25.08L52 9.08C50.7838 8.37785 49.4043 8.0082 48 8.0082C46.5957 8.0082 45.2162 8.37785 44 9.08L16 25.08C14.7851 25.7814 13.7759 26.7901 13.0738 28.0046C12.3718 29.2192 12.0014 30.5971 12 32V64C12.0014 65.4029 13.0738 67.9953 13.0738 67.9953C13.7759 69.2099 14.7851 70.2185 16 70.92L44 86.92C45.2162 87.6221 46.5957 87.9918 48 87.9918C49.4043 87.9918 50.7838 87.6221 52 86.92L68.5 77.3937" stroke="#FE9A00" stroke-width="9" stroke-linecap="round" stroke-linejoin="round"/>
<path d="M90 67C90 71.9706 85.9706 76 81 76C76.0294 76 72 71.9706 72 67C72 62.0294 76.0294 58 81 58C85.9706 58 90 62.0294 90 67Z" fill="#FE9A00"/>
</svg>
