<svg width="82" height="92" viewBox="0 0 82 92" fill="none" xmlns="http://www.w3.org/2000/svg">
<path d="M79.6748 23V47.5C79.6748 49.9853 77.6601 52 75.1748 52C72.6895 52 70.6748 49.9853 70.6748 47.5V28.1953L39.8369 10.3916L9 28.1953V63.8037L39.8066 81.5908L57.6582 71.1494C59.7369 69.9339 62.404 70.5706 63.71 72.5938C65.0996 74.7468 64.4131 77.6241 62.2012 78.918L39.8369 92L0 69V23L39.8369 0L79.6748 23Z" fill="#0A0A0A"/>
<path d="M81.8369 65C81.8369 69.9706 77.8075 74 72.8369 74C67.8664 74 63.8369 69.9706 63.8369 65C63.8369 60.0294 67.8664 56 72.8369 56C77.8075 56 81.8369 60.0294 81.8369 65Z" fill="#FE9A00"/>
</svg>
